<svg xmlns="http://www.w3.org/2000/svg" viewBox="0 0 170 170">
<defs>
  <filter id="rough" x="-10%" y="-10%" width="120%" height="120%">
    <feTurbulence type="fractalNoise" baseFrequency="0.04" numOctaves="2" seed="14" result="n"/>
    <feDisplacementMap in="SourceGraphic" in2="n" scale="3.2" xChannelSelector="R" yChannelSelector="G"/>
  </filter>
  <filter id="rough2" x="-10%" y="-10%" width="120%" height="120%">
    <feTurbulence type="fractalNoise" baseFrequency="0.05" numOctaves="2" seed="19" result="n"/>
    <feDisplacementMap in="SourceGraphic" in2="n" scale="4" xChannelSelector="G" yChannelSelector="R"/>
  </filter>
  <filter id="pencil" x="-10%" y="-10%" width="120%" height="120%">
    <feTurbulence type="fractalNoise" baseFrequency="0.85" numOctaves="2" seed="11" result="grain"/>
    <feColorMatrix in="grain" type="matrix"
      values="0 0 0 0 0  0 0 0 0 0  0 0 0 0 0  0 0 0 -2.2 1.75" result="mask"/>
    <feComposite in="SourceGraphic" in2="mask" operator="in" result="tex"/>
    <feTurbulence type="fractalNoise" baseFrequency="0.04" numOctaves="2" seed="14" result="n"/>
    <feDisplacementMap in="tex" in2="n" scale="3.2" xChannelSelector="R" yChannelSelector="G"/>
  </filter>
  <pattern id="hatch" width="5" height="5" patternUnits="userSpaceOnUse" patternTransform="rotate(38)">
    <line x1="0" y1="0" x2="0" y2="5" stroke="#3a2e2a" stroke-width="1.1"/>
  </pattern>
</defs>
<path d="M43.2 131.2 L74.7 145.2 L106.3 138.6 L126.5 116.3 L129.5 88.5 L116.6 66.2 L95.0 56.7 L74.2 61.4 L61.6 76.0 L60.4 93.0 L68.6 105.5" fill="none" stroke="#3a2e2a" stroke-width="5" opacity="1" stroke-linecap="round" stroke-linejoin="round" filter="url(#rough)"/>
<circle cx="68.6" cy="105.5" r="11" fill="#7cc3e8" filter="url(#pencil)"/>
<circle cx="68.6" cy="105.5" r="11" fill="url(#hatch)" opacity="0.08" filter="url(#rough)"/>
<circle cx="68.6" cy="105.5" r="11" fill="none" stroke="#3a2e2a" stroke-width="1.8" stroke-linejoin="round" stroke-linecap="round" filter="url(#rough)"/>
<circle cx="68.6" cy="105.5" r="11" fill="none" stroke="#3a2e2a" stroke-width="0.81" opacity=".55" stroke-linecap="round" filter="url(#rough2)" transform="translate(1.2 -0.8) "/>
<circle cx="60.4" cy="93.0" r="11" fill="#f2a33d" filter="url(#pencil)"/>
<circle cx="60.4" cy="93.0" r="11" fill="url(#hatch)" opacity="0.08" filter="url(#rough)"/>
<circle cx="60.4" cy="93.0" r="11" fill="none" stroke="#3a2e2a" stroke-width="1.8" stroke-linejoin="round" stroke-linecap="round" filter="url(#rough)"/>
<circle cx="60.4" cy="93.0" r="11" fill="none" stroke="#3a2e2a" stroke-width="0.81" opacity=".55" stroke-linecap="round" filter="url(#rough2)" transform="translate(1.2 -0.8) "/>
<circle cx="61.6" cy="76.0" r="11" fill="#7cc3e8" filter="url(#pencil)"/>
<circle cx="61.6" cy="76.0" r="11" fill="url(#hatch)" opacity="0.08" filter="url(#rough)"/>
<circle cx="61.6" cy="76.0" r="11" fill="none" stroke="#3a2e2a" stroke-width="1.8" stroke-linejoin="round" stroke-linecap="round" filter="url(#rough)"/>
<circle cx="61.6" cy="76.0" r="11" fill="none" stroke="#3a2e2a" stroke-width="0.81" opacity=".55" stroke-linecap="round" filter="url(#rough2)" transform="translate(1.2 -0.8) "/>
<circle cx="74.2" cy="61.4" r="11" fill="#f2a33d" filter="url(#pencil)"/>
<circle cx="74.2" cy="61.4" r="11" fill="url(#hatch)" opacity="0.08" filter="url(#rough)"/>
<circle cx="74.2" cy="61.4" r="11" fill="none" stroke="#3a2e2a" stroke-width="1.8" stroke-linejoin="round" stroke-linecap="round" filter="url(#rough)"/>
<circle cx="74.2" cy="61.4" r="11" fill="none" stroke="#3a2e2a" stroke-width="0.81" opacity=".55" stroke-linecap="round" filter="url(#rough2)" transform="translate(1.2 -0.8) "/>
<circle cx="95.0" cy="56.7" r="11" fill="#f2a33d" filter="url(#pencil)"/>
<circle cx="95.0" cy="56.7" r="11" fill="url(#hatch)" opacity="0.08" filter="url(#rough)"/>
<circle cx="95.0" cy="56.7" r="11" fill="none" stroke="#3a2e2a" stroke-width="1.8" stroke-linejoin="round" stroke-linecap="round" filter="url(#rough)"/>
<circle cx="95.0" cy="56.7" r="11" fill="none" stroke="#3a2e2a" stroke-width="0.81" opacity=".55" stroke-linecap="round" filter="url(#rough2)" transform="translate(1.2 -0.8) "/>
<circle cx="116.6" cy="66.2" r="11" fill="#7cc3e8" filter="url(#pencil)"/>
<circle cx="116.6" cy="66.2" r="11" fill="url(#hatch)" opacity="0.08" filter="url(#rough)"/>
<circle cx="116.6" cy="66.2" r="11" fill="none" stroke="#3a2e2a" stroke-width="1.8" stroke-linejoin="round" stroke-linecap="round" filter="url(#rough)"/>
<circle cx="116.6" cy="66.2" r="11" fill="none" stroke="#3a2e2a" stroke-width="0.81" opacity=".55" stroke-linecap="round" filter="url(#rough2)" transform="translate(1.2 -0.8) "/>
<circle cx="129.5" cy="88.5" r="11" fill="#f2a33d" filter="url(#pencil)"/>
<circle cx="129.5" cy="88.5" r="11" fill="url(#hatch)" opacity="0.08" filter="url(#rough)"/>
<circle cx="129.5" cy="88.5" r="11" fill="none" stroke="#3a2e2a" stroke-width="1.8" stroke-linejoin="round" stroke-linecap="round" filter="url(#rough)"/>
<circle cx="129.5" cy="88.5" r="11" fill="none" stroke="#3a2e2a" stroke-width="0.81" opacity=".55" stroke-linecap="round" filter="url(#rough2)" transform="translate(1.2 -0.8) "/>
<circle cx="126.5" cy="116.3" r="11" fill="#7cc3e8" filter="url(#pencil)"/>
<circle cx="126.5" cy="116.3" r="11" fill="url(#hatch)" opacity="0.08" filter="url(#rough)"/>
<circle cx="126.5" cy="116.3" r="11" fill="none" stroke="#3a2e2a" stroke-width="1.8" stroke-linejoin="round" stroke-linecap="round" filter="url(#rough)"/>
<circle cx="126.5" cy="116.3" r="11" fill="none" stroke="#3a2e2a" stroke-width="0.81" opacity=".55" stroke-linecap="round" filter="url(#rough2)" transform="translate(1.2 -0.8) "/>
<circle cx="106.3" cy="138.6" r="11" fill="#f2a33d" filter="url(#pencil)"/>
<circle cx="106.3" cy="138.6" r="11" fill="url(#hatch)" opacity="0.08" filter="url(#rough)"/>
<circle cx="106.3" cy="138.6" r="11" fill="none" stroke="#3a2e2a" stroke-width="1.8" stroke-linejoin="round" stroke-linecap="round" filter="url(#rough)"/>
<circle cx="106.3" cy="138.6" r="11" fill="none" stroke="#3a2e2a" stroke-width="0.81" opacity=".55" stroke-linecap="round" filter="url(#rough2)" transform="translate(1.2 -0.8) "/>
<circle cx="74.7" cy="145.2" r="11" fill="#7cc3e8" filter="url(#pencil)"/>
<circle cx="74.7" cy="145.2" r="11" fill="url(#hatch)" opacity="0.08" filter="url(#rough)"/>
<circle cx="74.7" cy="145.2" r="11" fill="none" stroke="#3a2e2a" stroke-width="1.8" stroke-linejoin="round" stroke-linecap="round" filter="url(#rough)"/>
<circle cx="74.7" cy="145.2" r="11" fill="none" stroke="#3a2e2a" stroke-width="0.81" opacity=".55" stroke-linecap="round" filter="url(#rough2)" transform="translate(1.2 -0.8) "/>
<circle cx="43.2" cy="131.2" r="22" fill="#a3d9a0" filter="url(#pencil)"/>
<circle cx="43.2" cy="131.2" r="22" fill="url(#hatch)" opacity="0.08" filter="url(#rough)"/>
<circle cx="43.2" cy="131.2" r="22" fill="none" stroke="#3a2e2a" stroke-width="2.4" stroke-linejoin="round" stroke-linecap="round" filter="url(#rough)"/>
<circle cx="43.2" cy="131.2" r="22" fill="none" stroke="#3a2e2a" stroke-width="1.08" opacity=".55" stroke-linecap="round" filter="url(#rough2)" transform="translate(1.2 -0.8) "/>
<circle cx="37.2" cy="128.2" r="4" fill="#3a2e2a"/><circle cx="38.6" cy="126.6" r="1.4" fill="#fff"/>
<circle cx="51.2" cy="128.2" r="4" fill="#3a2e2a"/><circle cx="52.6" cy="126.6" r="1.4" fill="#fff"/>
<path d="M38.2 138.2 Q44.2 143.2 50.2 138.2" fill="none" stroke="#3a2e2a" stroke-width="2.4" opacity="1" stroke-linecap="round" stroke-linejoin="round" filter="url(#rough)"/>
<ellipse cx="29.2" cy="136.2" rx="4.5" ry="3" fill="#f08a8a" opacity=".6"/>
<ellipse cx="59.2" cy="136.2" rx="4.5" ry="3" fill="#f08a8a" opacity=".6"/></svg>
